<?xml version="1.0" encoding="UTF-8"?>
<svg id="_图层_2" data-name="图层 2" xmlns="http://www.w3.org/2000/svg" viewBox="0 0 397.94 60.19">
  <defs>
    <style>
      .cls-1 {
        fill: #e03b3b;
      }

      .cls-1, .cls-2, .cls-3, .cls-4, .cls-5, .cls-6 {
        stroke-width: 0px;
      }

      .cls-2 {
        fill: #3c7edd;
      }

      .cls-3 {
        fill: #dd813c;
      }

      .cls-4 {
        fill: #232323;
      }

      .cls-5 {
        fill: #fff;
      }

      .cls-6 {
        fill: #848484;
      }
    </style>
  </defs>
  <g id="_图层_1-2" data-name="图层 1">
    <g>
      <g>
        <path class="cls-4" d="M233.51,14.7c3.21-4.54,7.28-8.06,12.2-10.58,4.92-2.52,10.4-3.78,16.43-3.78,5.15,0,9.53.84,13.16,2.53,3.62,1.69,6.34,4.08,8.13,7.18,1.8,3.1,2.61,6.75,2.45,10.96h-19.42c-.5-1.16-1.36-2.06-2.57-2.7-1.22-.64-2.77-.95-4.65-.95-3.54,0-6.49,1.16-8.84,3.49-2.35,2.32-3.86,5.45-4.52,9.38-.28,1.66-.42,3.02-.42,4.07,0,6.42,3.73,9.63,11.21,9.63,4.26,0,8-1.71,11.2-5.15h-14.69l2.24-13.03h29.96l-3.24,18.43c-3.32,4.37-7.5,8.12-12.53,11.25-5.04,3.13-10.98,4.69-17.84,4.69-5.31,0-9.85-.97-13.61-2.91-3.76-1.94-6.63-4.66-8.59-8.18-1.96-3.51-2.95-7.62-2.95-12.33,0-2.21.19-4.37.58-6.47,1-5.81,3.1-10.98,6.31-15.52Z"/>
        <path class="cls-4" d="M342.58.92l-2.57,14.61h-15.6l-7.8,44.16h-18.43l7.8-44.16h-15.44l2.57-14.61h49.47Z"/>
        <path class="cls-4" d="M385.99,3.87c3.87,1.96,6.83,4.7,8.88,8.22,2.05,3.51,3.07,7.57,3.07,12.16,0,1.83-.17,3.79-.5,5.89-1,5.59-3.14,10.62-6.43,15.11-3.29,4.48-7.47,8.01-12.53,10.58-5.06,2.57-10.67,3.86-16.81,3.86h-24.48L347.56.92h24.48c5.42,0,10.07.98,13.95,2.95ZM373.41,39.85c2.85-2.27,4.63-5.51,5.35-9.71.17-1.11.25-2.13.25-3.07,0-3.26-1.01-5.75-3.03-7.47-2.02-1.71-4.83-2.57-8.42-2.57h-4.4l-4.65,26.23h4.4c4.15,0,7.65-1.13,10.5-3.4Z"/>
      </g>
      <g>
        <path class="cls-1" d="M113.69,51.98h-16.99l-3.89,7.7h-16.78l27.65-50.98h18.43l9.58,50.98h-16.85l-1.15-7.7ZM111.97,39.96l-2.09-14.18-7.13,14.18h9.22Z"/>
        <path class="cls-3" d="M168.56,39.96l11.23,19.73h-17.86l-5.18-9.14-6.77,9.14h-17.57l17.42-21.38-10.94-19.22h17.86l5.18,9.22,6.84-9.22h17.57l-17.78,20.88Z"/>
        <path class="cls-6" d="M206.57,19.08l-7.2,40.61h-15.98l7.2-40.61h15.98ZM193.36,14.04c-1.42-1.2-2.12-2.76-2.12-4.68,0-1.68.46-3.24,1.37-4.68.91-1.44,2.2-2.58,3.85-3.42,1.66-.84,3.49-1.26,5.51-1.26,2.45,0,4.38.61,5.8,1.84,1.42,1.22,2.12,2.82,2.12,4.79,0,1.68-.46,3.22-1.37,4.61-.91,1.39-2.18,2.51-3.82,3.35-1.63.84-3.46,1.26-5.47,1.26-2.5,0-4.45-.6-5.87-1.8Z"/>
        <path class="cls-2" d="M215.68,58.61c-2.76-1.06-4.92-2.53-6.48-4.43-1.56-1.9-2.34-4.07-2.34-6.52,0-.91.05-1.58.14-2.02h15.34c-.05,1.2.3,2.09,1.04,2.66.74.58,1.76.86,3.06.86.82,0,1.52-.19,2.12-.58.6-.38.9-.84.9-1.37,0-.77-.48-1.38-1.44-1.84-.96-.46-2.54-.97-4.75-1.55-2.78-.77-5.1-1.56-6.95-2.38-1.85-.82-3.46-2.03-4.82-3.64-1.37-1.61-2.05-3.71-2.05-6.3,0-2.4.73-4.6,2.2-6.59,1.46-1.99,3.53-3.55,6.19-4.68,2.66-1.13,5.75-1.69,9.25-1.69,3.84,0,7.14.65,9.9,1.94,2.76,1.3,4.84,3.05,6.23,5.26,1.39,2.21,2.04,4.66,1.94,7.34h-14.18c0-1.1-.34-1.96-1.01-2.56-.67-.6-1.66-.9-2.95-.9-.82,0-1.5.17-2.05.5-.55.34-.83.79-.83,1.37,0,.72.48,1.31,1.44,1.76.96.46,2.59,1.04,4.9,1.76,2.83.82,5.17,1.62,7.02,2.41,1.85.79,3.47,1.97,4.86,3.53,1.39,1.56,2.09,3.54,2.09,5.94,0,4.18-1.79,7.43-5.36,9.76-3.58,2.33-8.22,3.49-13.93,3.49-3.55,0-6.71-.53-9.47-1.58Z"/>
      </g>
    </g>
    <g>
      <g>
        <rect class="cls-1" x="30.39" y=".6" width="28.61" height="28.61"/>
        <rect class="cls-3" y=".6" width="28.61" height="28.61"/>
        <path class="cls-6" d="M0,30.99h28.61v28.61H.26c-.14,0-.26-.12-.26-.26v-28.34h0Z"/>
        <rect class="cls-2" x="30.39" y="30.99" width="28.61" height="28.61"/>
      </g>
      <circle class="cls-5" cx="29.5" cy="30.1" r="25.03"/>
      <rect class="cls-1" x="30.04" y="12.22" width="17.34" height="17.34"/>
      <rect class="cls-3" x="11.62" y="12.22" width="17.34" height="17.34"/>
      <path class="cls-6" d="M11.62,30.64h17.34v17.34H11.88c-.14,0-.26-.12-.26-.26v-17.07h0Z"/>
      <rect class="cls-2" x="30.04" y="30.64" width="17.34" height="17.34"/>
    </g>
  </g>
</svg>